<?xml version="1.0" encoding="UTF-8" standalone="no"?>
<svg
   xmlns:dc="http://purl.org/dc/elements/1.1/"
   xmlns:cc="http://creativecommons.org/ns#"
   xmlns:rdf="http://www.w3.org/1999/02/22-rdf-syntax-ns#"
   xmlns:svg="http://www.w3.org/2000/svg"
   xmlns="http://www.w3.org/2000/svg"
   version="1.1"
   id="Layer_1"
   x="0px"
   y="0px"
   viewBox="0 0 880.5 214.17249"
   xml:space="preserve"
   width="880.5"
   height="214.1725"><metadata
   id="metadata194"><rdf:RDF><cc:Work
       rdf:about=""><dc:format>image/svg+xml</dc:format><dc:type
         rdf:resource="http://purl.org/dc/dcmitype/StillImage" /><dc:title></dc:title></cc:Work></rdf:RDF></metadata><defs
   id="defs192" />
<style
   type="text/css"
   id="style121">
	.st0{fill:#2B2B2B;}
	.st1{fill:#FFFFFF;}
	.st2{fill:#F2F200;}
	.st3{fill:#2CC66A;}
</style>




<g
   id="g81"
   transform="translate(-575.22,-459.2275)"><g
     id="g155">
	<g
   id="g137">
		<path
   d="m 1207.98,655.48 c 2.7,0 4.71,-0.36 6.01,-1.07 1.3,-0.71 1.96,-1.85 1.96,-3.41 0,-1.61 -0.64,-2.89 -1.92,-3.84 -1.28,-0.95 -3.39,-2.01 -6.33,-3.2 -1.42,-0.57 -2.79,-1.15 -4.09,-1.74 -1.3,-0.59 -2.43,-1.29 -3.38,-2.1 -0.95,-0.81 -1.71,-1.78 -2.28,-2.92 -0.57,-1.14 -0.85,-2.54 -0.85,-4.2 0,-3.27 1.21,-5.87 3.63,-7.79 2.42,-1.92 5.71,-2.88 9.89,-2.88 1.04,0 2.09,0.06 3.13,0.18 1.04,0.12 2.01,0.26 2.92,0.43 0.9,0.17 1.69,0.34 2.38,0.53 0.69,0.19 1.22,0.36 1.6,0.5 l -1.21,5.69 c -0.71,-0.38 -1.83,-0.77 -3.34,-1.17 -1.52,-0.4 -3.34,-0.6 -5.48,-0.6 -1.85,0 -3.46,0.37 -4.84,1.1 -1.38,0.74 -2.06,1.88 -2.06,3.45 0,0.81 0.15,1.52 0.46,2.13 0.31,0.61 0.78,1.17 1.42,1.67 0.64,0.5 1.43,0.96 2.38,1.39 0.95,0.43 2.09,0.88 3.41,1.35 1.75,0.66 3.32,1.32 4.69,1.96 1.38,0.64 2.55,1.39 3.52,2.24 0.97,0.85 1.72,1.88 2.24,3.09 0.52,1.21 0.78,2.69 0.78,4.45 0,3.41 -1.27,6 -3.8,7.75 -2.54,1.75 -6.15,2.63 -10.85,2.63 -3.27,0 -5.83,-0.27 -7.68,-0.82 -1.85,-0.54 -3.11,-0.96 -3.77,-1.24 l 1.21,-5.69 c 0.76,0.28 1.97,0.71 3.63,1.28 1.66,0.56 3.87,0.85 6.62,0.85 z"
   id="path123" />
		<path
   d="m 1229.03,641.82 c 0,-2.99 0.44,-5.68 1.32,-8.07 0.88,-2.39 2.12,-4.42 3.73,-6.08 1.61,-1.66 3.56,-2.94 5.83,-3.84 2.27,-0.9 4.84,-1.35 7.68,-1.35 3.08,0 5.8,0.23 8.14,0.68 2.35,0.45 4.3,0.87 5.87,1.24 v 49 h -6.61 v -14.79 c -0.81,0.52 -2.03,1.07 -3.66,1.64 -1.63,0.57 -3.52,0.85 -5.65,0.85 -2.66,0 -5.01,-0.47 -7.08,-1.42 -2.06,-0.95 -3.8,-2.28 -5.23,-3.98 -1.42,-1.71 -2.5,-3.74 -3.24,-6.12 -0.74,-2.38 -1.1,-4.96 -1.1,-7.76 z m 6.9,0 c 0,1.9 0.19,3.66 0.57,5.3 0.38,1.64 1,3.06 1.85,4.27 0.85,1.21 1.96,2.16 3.31,2.84 1.35,0.69 2.97,1.03 4.87,1.03 1.8,0 3.46,-0.31 4.98,-0.92 1.52,-0.62 2.68,-1.26 3.48,-1.92 v -23.33 c -0.66,-0.19 -1.55,-0.36 -2.67,-0.5 -1.12,-0.14 -2.67,-0.21 -4.66,-0.21 -3.56,0 -6.4,1.16 -8.53,3.49 -2.13,2.33 -3.2,5.64 -3.2,9.95 z"
   id="path125" />
		<path
   d="m 1302.42,659.18 c -1.52,0.38 -3.52,0.78 -6.01,1.21 -2.49,0.43 -5.37,0.64 -8.64,0.64 -2.84,0 -5.24,-0.42 -7.18,-1.24 -1.94,-0.83 -3.51,-2 -4.69,-3.52 -1.19,-1.52 -2.04,-3.31 -2.56,-5.37 -0.52,-2.06 -0.78,-4.35 -0.78,-6.86 v -20.77 h 6.61 v 19.34 c 0,4.5 0.71,7.73 2.13,9.67 1.42,1.94 3.82,2.92 7.18,2.92 0.71,0 1.45,-0.02 2.21,-0.07 0.76,-0.05 1.47,-0.11 2.13,-0.18 0.66,-0.07 1.27,-0.14 1.81,-0.21 0.54,-0.07 0.94,-0.15 1.17,-0.25 v -31.22 h 6.61 v 35.91 z"
   id="path127" />
		<path
   d="m 1311.73,641.82 c 0,-3.27 0.47,-6.13 1.42,-8.57 0.95,-2.44 2.21,-4.47 3.77,-6.08 1.56,-1.61 3.37,-2.82 5.41,-3.63 2.04,-0.81 4.12,-1.21 6.26,-1.21 4.98,0 8.79,1.55 11.45,4.66 2.65,3.11 3.98,7.83 3.98,14.19 0,0.29 0,0.65 0,1.1 0,0.45 -0.02,0.87 -0.07,1.25 h -25.32 c 0.28,3.84 1.4,6.76 3.34,8.75 1.94,1.99 4.98,2.99 9.1,2.99 2.32,0 4.28,-0.2 5.87,-0.6 1.59,-0.4 2.78,-0.79 3.59,-1.17 l 0.92,5.55 c -0.81,0.43 -2.22,0.88 -4.23,1.35 -2.02,0.47 -4.3,0.71 -6.86,0.71 -3.22,0 -6.01,-0.49 -8.36,-1.46 -2.35,-0.97 -4.28,-2.31 -5.8,-4.02 -1.52,-1.71 -2.64,-3.73 -3.38,-6.08 -0.72,-2.36 -1.09,-4.93 -1.09,-7.73 z m 25.39,-3.62 c 0.05,-2.99 -0.7,-5.44 -2.24,-7.36 -1.54,-1.92 -3.66,-2.88 -6.37,-2.88 -1.52,0 -2.86,0.3 -4.02,0.89 -1.16,0.59 -2.15,1.36 -2.95,2.31 -0.81,0.95 -1.43,2.04 -1.88,3.27 -0.45,1.23 -0.75,2.49 -0.89,3.77 z"
   id="path129" />
		<path
   d="m 1351.49,641.82 c 0,-3.27 0.47,-6.13 1.42,-8.57 0.95,-2.44 2.21,-4.47 3.77,-6.08 1.56,-1.61 3.37,-2.82 5.41,-3.63 2.04,-0.81 4.12,-1.21 6.26,-1.21 4.98,0 8.79,1.55 11.45,4.66 2.65,3.11 3.98,7.83 3.98,14.19 0,0.29 0,0.65 0,1.1 0,0.45 -0.02,0.87 -0.07,1.25 h -25.32 c 0.28,3.84 1.4,6.76 3.34,8.75 1.94,1.99 4.98,2.99 9.1,2.99 2.32,0 4.28,-0.2 5.87,-0.6 1.59,-0.4 2.78,-0.79 3.59,-1.17 l 0.92,5.55 c -0.81,0.43 -2.22,0.88 -4.23,1.35 -2.02,0.47 -4.3,0.71 -6.86,0.71 -3.22,0 -6.01,-0.49 -8.36,-1.46 -2.35,-0.97 -4.28,-2.31 -5.8,-4.02 -1.52,-1.71 -2.64,-3.73 -3.38,-6.08 -0.73,-2.36 -1.09,-4.93 -1.09,-7.73 z m 25.39,-3.62 c 0.05,-2.99 -0.7,-5.44 -2.24,-7.36 -1.54,-1.92 -3.66,-2.88 -6.37,-2.88 -1.52,0 -2.86,0.3 -4.02,0.89 -1.16,0.59 -2.15,1.36 -2.95,2.31 -0.81,0.95 -1.43,2.04 -1.88,3.27 -0.45,1.23 -0.75,2.49 -0.89,3.77 z"
   id="path131" />
		<path
   d="m 1417.84,628.24 c -1,1.09 -2.31,2.63 -3.95,4.62 -1.64,1.99 -3.39,4.2 -5.26,6.61 -1.87,2.41 -3.75,4.95 -5.62,7.61 -1.87,2.66 -3.52,5.19 -4.94,7.61 h 20.34 v 5.55 h -28.23 v -4.41 c 1.14,-2.09 2.54,-4.38 4.2,-6.9 1.66,-2.51 3.4,-5.01 5.23,-7.5 1.82,-2.49 3.6,-4.84 5.33,-7.04 1.73,-2.21 3.24,-4.07 4.52,-5.58 h -18.28 v -5.55 h 26.67 v 4.98 z"
   id="path133" />
		<path
   d="m 1423.39,641.82 c 0,-3.27 0.47,-6.13 1.42,-8.57 0.95,-2.44 2.21,-4.47 3.77,-6.08 1.56,-1.61 3.37,-2.82 5.41,-3.63 2.04,-0.81 4.12,-1.21 6.26,-1.21 4.98,0 8.79,1.55 11.45,4.66 2.65,3.11 3.98,7.83 3.98,14.19 0,0.29 0,0.65 0,1.1 0,0.45 -0.02,0.87 -0.07,1.25 h -25.32 c 0.28,3.84 1.4,6.76 3.34,8.75 1.94,1.99 4.98,2.99 9.1,2.99 2.32,0 4.28,-0.2 5.87,-0.6 1.59,-0.4 2.78,-0.79 3.59,-1.17 l 0.92,5.55 c -0.81,0.43 -2.22,0.88 -4.23,1.35 -2.02,0.47 -4.3,0.71 -6.86,0.71 -3.22,0 -6.01,-0.49 -8.36,-1.46 -2.35,-0.97 -4.28,-2.31 -5.8,-4.02 -1.52,-1.71 -2.64,-3.73 -3.38,-6.08 -0.73,-2.36 -1.09,-4.93 -1.09,-7.73 z m 25.39,-3.62 c 0.05,-2.99 -0.7,-5.44 -2.24,-7.36 -1.54,-1.92 -3.66,-2.88 -6.37,-2.88 -1.52,0 -2.86,0.3 -4.02,0.89 -1.16,0.59 -2.15,1.36 -2.95,2.31 -0.81,0.95 -1.43,2.04 -1.88,3.27 -0.45,1.23 -0.75,2.49 -0.89,3.77 z"
   id="path135" />
	</g>
	<g
   id="g153">
		<path
   class="st2"
   d="m 1207.98,655.48 c 2.7,0 4.71,-0.36 6.01,-1.07 1.3,-0.71 1.96,-1.85 1.96,-3.41 0,-1.61 -0.64,-2.89 -1.92,-3.84 -1.28,-0.95 -3.39,-2.01 -6.33,-3.2 -1.42,-0.57 -2.79,-1.15 -4.09,-1.74 -1.3,-0.59 -2.43,-1.29 -3.38,-2.1 -0.95,-0.81 -1.71,-1.78 -2.28,-2.92 -0.57,-1.14 -0.85,-2.54 -0.85,-4.2 0,-3.27 1.21,-5.87 3.63,-7.79 2.42,-1.92 5.71,-2.88 9.89,-2.88 1.04,0 2.09,0.06 3.13,0.18 1.04,0.12 2.01,0.26 2.92,0.43 0.9,0.17 1.69,0.34 2.38,0.53 0.69,0.19 1.22,0.36 1.6,0.5 l -1.21,5.69 c -0.71,-0.38 -1.83,-0.77 -3.34,-1.17 -1.52,-0.4 -3.34,-0.6 -5.48,-0.6 -1.85,0 -3.46,0.37 -4.84,1.1 -1.38,0.74 -2.06,1.88 -2.06,3.45 0,0.81 0.15,1.52 0.46,2.13 0.31,0.61 0.78,1.17 1.42,1.67 0.64,0.5 1.43,0.96 2.38,1.39 0.95,0.43 2.09,0.88 3.41,1.35 1.75,0.66 3.32,1.32 4.69,1.96 1.38,0.64 2.55,1.39 3.52,2.24 0.97,0.85 1.72,1.88 2.24,3.09 0.52,1.21 0.78,2.69 0.78,4.45 0,3.41 -1.27,6 -3.8,7.75 -2.54,1.75 -6.15,2.63 -10.85,2.63 -3.27,0 -5.83,-0.27 -7.68,-0.82 -1.85,-0.54 -3.11,-0.96 -3.77,-1.24 l 1.21,-5.69 c 0.76,0.28 1.97,0.71 3.63,1.28 1.66,0.56 3.87,0.85 6.62,0.85 z"
   id="path139" />
		<path
   class="st2"
   d="m 1229.03,641.82 c 0,-2.99 0.44,-5.68 1.32,-8.07 0.88,-2.39 2.12,-4.42 3.73,-6.08 1.61,-1.66 3.56,-2.94 5.83,-3.84 2.27,-0.9 4.84,-1.35 7.68,-1.35 3.08,0 5.8,0.23 8.14,0.68 2.35,0.45 4.3,0.87 5.87,1.24 v 49 h -6.61 v -14.79 c -0.81,0.52 -2.03,1.07 -3.66,1.64 -1.63,0.57 -3.52,0.85 -5.65,0.85 -2.66,0 -5.01,-0.47 -7.08,-1.42 -2.06,-0.95 -3.8,-2.28 -5.23,-3.98 -1.42,-1.71 -2.5,-3.74 -3.24,-6.12 -0.74,-2.38 -1.1,-4.96 -1.1,-7.76 z m 6.9,0 c 0,1.9 0.19,3.66 0.57,5.3 0.38,1.64 1,3.06 1.85,4.27 0.85,1.21 1.96,2.16 3.31,2.84 1.35,0.69 2.97,1.03 4.87,1.03 1.8,0 3.46,-0.31 4.98,-0.92 1.52,-0.62 2.68,-1.26 3.48,-1.92 v -23.33 c -0.66,-0.19 -1.55,-0.36 -2.67,-0.5 -1.12,-0.14 -2.67,-0.21 -4.66,-0.21 -3.56,0 -6.4,1.16 -8.53,3.49 -2.13,2.33 -3.2,5.64 -3.2,9.95 z"
   id="path141" />
		<path
   class="st2"
   d="m 1302.42,659.18 c -1.52,0.38 -3.52,0.78 -6.01,1.21 -2.49,0.43 -5.37,0.64 -8.64,0.64 -2.84,0 -5.24,-0.42 -7.18,-1.24 -1.94,-0.83 -3.51,-2 -4.69,-3.52 -1.19,-1.52 -2.04,-3.31 -2.56,-5.37 -0.52,-2.06 -0.78,-4.35 -0.78,-6.86 v -20.77 h 6.61 v 19.34 c 0,4.5 0.71,7.73 2.13,9.67 1.42,1.94 3.82,2.92 7.18,2.92 0.71,0 1.45,-0.02 2.21,-0.07 0.76,-0.05 1.47,-0.11 2.13,-0.18 0.66,-0.07 1.27,-0.14 1.81,-0.21 0.54,-0.07 0.94,-0.15 1.17,-0.25 v -31.22 h 6.61 v 35.91 z"
   id="path143" />
		<path
   class="st2"
   d="m 1311.73,641.82 c 0,-3.27 0.47,-6.13 1.42,-8.57 0.95,-2.44 2.21,-4.47 3.77,-6.08 1.56,-1.61 3.37,-2.82 5.41,-3.63 2.04,-0.81 4.12,-1.21 6.26,-1.21 4.98,0 8.79,1.55 11.45,4.66 2.65,3.11 3.98,7.83 3.98,14.19 0,0.29 0,0.65 0,1.1 0,0.45 -0.02,0.87 -0.07,1.25 h -25.32 c 0.28,3.84 1.4,6.76 3.34,8.75 1.94,1.99 4.98,2.99 9.1,2.99 2.32,0 4.28,-0.2 5.87,-0.6 1.59,-0.4 2.78,-0.79 3.59,-1.17 l 0.92,5.55 c -0.81,0.43 -2.22,0.88 -4.23,1.35 -2.02,0.47 -4.3,0.71 -6.86,0.71 -3.22,0 -6.01,-0.49 -8.36,-1.46 -2.35,-0.97 -4.28,-2.31 -5.8,-4.02 -1.52,-1.71 -2.64,-3.73 -3.38,-6.08 -0.72,-2.36 -1.09,-4.93 -1.09,-7.73 z m 25.39,-3.62 c 0.05,-2.99 -0.7,-5.44 -2.24,-7.36 -1.54,-1.92 -3.66,-2.88 -6.37,-2.88 -1.52,0 -2.86,0.3 -4.02,0.89 -1.16,0.59 -2.15,1.36 -2.95,2.31 -0.81,0.95 -1.43,2.04 -1.88,3.27 -0.45,1.23 -0.75,2.49 -0.89,3.77 z"
   id="path145" />
		<path
   class="st2"
   d="m 1351.49,641.82 c 0,-3.27 0.47,-6.13 1.42,-8.57 0.95,-2.44 2.21,-4.47 3.77,-6.08 1.56,-1.61 3.37,-2.82 5.41,-3.63 2.04,-0.81 4.12,-1.21 6.26,-1.21 4.98,0 8.79,1.55 11.45,4.66 2.65,3.11 3.98,7.83 3.98,14.19 0,0.29 0,0.65 0,1.1 0,0.45 -0.02,0.87 -0.07,1.25 h -25.32 c 0.28,3.84 1.4,6.76 3.34,8.75 1.94,1.99 4.98,2.99 9.1,2.99 2.32,0 4.28,-0.2 5.87,-0.6 1.59,-0.4 2.78,-0.79 3.59,-1.17 l 0.92,5.55 c -0.81,0.43 -2.22,0.88 -4.23,1.35 -2.02,0.47 -4.3,0.71 -6.86,0.71 -3.22,0 -6.01,-0.49 -8.36,-1.46 -2.35,-0.97 -4.28,-2.31 -5.8,-4.02 -1.52,-1.71 -2.64,-3.73 -3.38,-6.08 -0.73,-2.36 -1.09,-4.93 -1.09,-7.73 z m 25.39,-3.62 c 0.05,-2.99 -0.7,-5.44 -2.24,-7.36 -1.54,-1.92 -3.66,-2.88 -6.37,-2.88 -1.52,0 -2.86,0.3 -4.02,0.89 -1.16,0.59 -2.15,1.36 -2.95,2.31 -0.81,0.95 -1.43,2.04 -1.88,3.27 -0.45,1.23 -0.75,2.49 -0.89,3.77 z"
   id="path147" />
		<path
   class="st2"
   d="m 1417.84,628.24 c -1,1.09 -2.31,2.63 -3.95,4.62 -1.64,1.99 -3.39,4.2 -5.26,6.61 -1.87,2.41 -3.75,4.95 -5.62,7.61 -1.87,2.66 -3.52,5.19 -4.94,7.61 h 20.34 v 5.55 h -28.23 v -4.41 c 1.14,-2.09 2.54,-4.38 4.2,-6.9 1.66,-2.51 3.4,-5.01 5.23,-7.5 1.82,-2.49 3.6,-4.84 5.33,-7.04 1.73,-2.21 3.24,-4.07 4.52,-5.58 h -18.28 v -5.55 h 26.67 v 4.98 z"
   id="path149" />
		<path
   class="st2"
   d="m 1423.39,641.82 c 0,-3.27 0.47,-6.13 1.42,-8.57 0.95,-2.44 2.21,-4.47 3.77,-6.08 1.56,-1.61 3.37,-2.82 5.41,-3.63 2.04,-0.81 4.12,-1.21 6.26,-1.21 4.98,0 8.79,1.55 11.45,4.66 2.65,3.11 3.98,7.83 3.98,14.19 0,0.29 0,0.65 0,1.1 0,0.45 -0.02,0.87 -0.07,1.25 h -25.32 c 0.28,3.84 1.4,6.76 3.34,8.75 1.94,1.99 4.98,2.99 9.1,2.99 2.32,0 4.28,-0.2 5.87,-0.6 1.59,-0.4 2.78,-0.79 3.59,-1.17 l 0.92,5.55 c -0.81,0.43 -2.22,0.88 -4.23,1.35 -2.02,0.47 -4.3,0.71 -6.86,0.71 -3.22,0 -6.01,-0.49 -8.36,-1.46 -2.35,-0.97 -4.28,-2.31 -5.8,-4.02 -1.52,-1.71 -2.64,-3.73 -3.38,-6.08 -0.73,-2.36 -1.09,-4.93 -1.09,-7.73 z m 25.39,-3.62 c 0.05,-2.99 -0.7,-5.44 -2.24,-7.36 -1.54,-1.92 -3.66,-2.88 -6.37,-2.88 -1.52,0 -2.86,0.3 -4.02,0.89 -1.16,0.59 -2.15,1.36 -2.95,2.31 -0.81,0.95 -1.43,2.04 -1.88,3.27 -0.45,1.23 -0.75,2.49 -0.89,3.77 z"
   id="path151" />
	</g>
</g><g
     id="g181">
	<g
   id="g167">
		<path
   d="m 1026.16,503.71 c 8.25,0 15.12,0.94 20.63,2.81 5.5,1.88 9.91,4.56 13.22,8.06 3.31,3.5 5.65,7.75 7.03,12.75 1.37,5 2.06,10.56 2.06,16.69 v 58.13 c -4,0.88 -9.56,1.91 -16.69,3.09 -7.13,1.19 -15.75,1.78 -25.88,1.78 -6.38,0 -12.16,-0.56 -17.34,-1.69 -5.19,-1.13 -9.66,-2.97 -13.41,-5.53 -3.75,-2.56 -6.63,-5.91 -8.63,-10.03 -2,-4.13 -3,-9.19 -3,-15.19 0,-5.75 1.15,-10.62 3.47,-14.63 2.31,-4 5.41,-7.19 9.28,-9.56 3.87,-2.37 8.31,-4.09 13.31,-5.16 5,-1.06 10.19,-1.59 15.56,-1.59 3.62,0 6.84,0.16 9.66,0.47 2.81,0.31 5.09,0.72 6.84,1.22 v -2.63 c 0,-4.75 -1.44,-8.56 -4.31,-11.44 -2.88,-2.87 -7.88,-4.31 -15,-4.31 -4.75,0 -9.44,0.35 -14.06,1.03 -4.63,0.69 -8.63,1.66 -12,2.91 l -3.56,-22.5 c 1.62,-0.5 3.66,-1.03 6.09,-1.59 2.43,-0.56 5.09,-1.06 7.97,-1.5 2.87,-0.44 5.91,-0.81 9.09,-1.13 3.2,-0.3 6.42,-0.46 9.67,-0.46 z m 2.25,81.75 c 2.75,0 5.37,-0.06 7.88,-0.19 2.5,-0.12 4.5,-0.31 6,-0.56 v -21.19 c -1.13,-0.25 -2.81,-0.5 -5.06,-0.75 -2.25,-0.25 -4.31,-0.38 -6.19,-0.38 -2.63,0 -5.09,0.16 -7.41,0.47 -2.31,0.31 -4.34,0.91 -6.09,1.78 -1.75,0.88 -3.13,2.06 -4.13,3.56 -1,1.5 -1.5,3.38 -1.5,5.63 0,4.38 1.47,7.41 4.41,9.09 2.93,1.7 6.96,2.54 12.09,2.54 z"
   id="path157" />
		<path
   d="m 1133.78,606.84 c -8.13,-0.13 -14.72,-1 -19.78,-2.63 -5.06,-1.63 -9.06,-3.91 -12,-6.84 -2.94,-2.94 -4.94,-6.5 -6,-10.69 -1.06,-4.19 -1.59,-8.91 -1.59,-14.16 V 463.96 l 27.94,-4.5 V 566.9 c 0,2.5 0.19,4.75 0.56,6.75 0.38,2 1.09,3.69 2.16,5.06 1.06,1.38 2.59,2.5 4.59,3.38 2,0.88 4.69,1.44 8.06,1.69 z"
   id="path159" />
		<path
   d="m 1245.34,555.65 c 0,7.63 -0.94,14.56 -2.81,20.81 -1.88,6.25 -4.63,11.63 -8.25,16.13 -3.63,4.5 -8.13,8 -13.5,10.5 -5.38,2.5 -11.56,3.75 -18.56,3.75 -3.88,0 -7.5,-0.38 -10.88,-1.13 -3.38,-0.75 -6.63,-1.81 -9.75,-3.19 v 37.13 h -27.94 V 509.71 c 2.5,-0.75 5.37,-1.47 8.63,-2.16 3.25,-0.69 6.66,-1.28 10.22,-1.78 3.56,-0.5 7.19,-0.91 10.88,-1.22 3.69,-0.31 7.22,-0.47 10.59,-0.47 8.12,0 15.38,1.22 21.75,3.66 6.37,2.44 11.75,5.88 16.12,10.31 4.37,4.44 7.72,9.84 10.03,16.22 2.32,6.38 3.47,13.5 3.47,21.38 z m -28.5,0.75 c 0,-8.63 -1.94,-15.53 -5.81,-20.72 -3.88,-5.19 -9.63,-7.78 -17.25,-7.78 -2.5,0 -4.81,0.09 -6.94,0.28 -2.13,0.19 -3.88,0.41 -5.25,0.66 v 50.44 c 1.75,1.13 4.03,2.06 6.84,2.81 2.81,0.75 5.65,1.13 8.53,1.13 13.26,-0.01 19.88,-8.94 19.88,-26.82 z"
   id="path161" />
		<path
   d="m 1266.9,604.96 v -141 l 27.94,-4.5 v 47.25 c 1.88,-0.62 4.28,-1.22 7.22,-1.78 2.94,-0.56 5.78,-0.84 8.53,-0.84 8,0 14.65,1.1 19.97,3.28 5.31,2.19 9.56,5.28 12.75,9.28 3.19,4 5.44,8.75 6.75,14.25 1.31,5.5 1.97,11.63 1.97,18.38 v 55.69 h -27.94 v -52.31 c 0,-9 -1.16,-15.38 -3.47,-19.13 -2.31,-3.75 -6.59,-5.63 -12.84,-5.63 -2.5,0 -4.85,0.22 -7.03,0.66 -2.19,0.44 -4.16,0.91 -5.91,1.41 v 75 h -27.94 z"
   id="path163" />
		<path
   d="m 1412.78,503.71 c 8.25,0 15.12,0.94 20.63,2.81 5.5,1.88 9.91,4.56 13.22,8.06 3.31,3.5 5.65,7.75 7.03,12.75 1.37,5 2.06,10.56 2.06,16.69 v 58.13 c -4,0.88 -9.56,1.91 -16.69,3.09 -7.13,1.19 -15.75,1.78 -25.88,1.78 -6.38,0 -12.16,-0.56 -17.34,-1.69 -5.19,-1.13 -9.66,-2.97 -13.41,-5.53 -3.75,-2.56 -6.63,-5.91 -8.63,-10.03 -2,-4.13 -3,-9.19 -3,-15.19 0,-5.75 1.15,-10.62 3.47,-14.63 2.31,-4 5.41,-7.19 9.28,-9.56 3.87,-2.37 8.31,-4.09 13.31,-5.16 5,-1.06 10.19,-1.59 15.56,-1.59 3.62,0 6.84,0.16 9.66,0.47 2.81,0.31 5.09,0.72 6.84,1.22 v -2.63 c 0,-4.75 -1.44,-8.56 -4.31,-11.44 -2.88,-2.87 -7.88,-4.31 -15,-4.31 -4.75,0 -9.44,0.35 -14.06,1.03 -4.63,0.69 -8.63,1.66 -12,2.91 l -3.56,-22.5 c 1.62,-0.5 3.66,-1.03 6.09,-1.59 2.43,-0.56 5.09,-1.06 7.97,-1.5 2.87,-0.44 5.91,-0.81 9.09,-1.13 3.2,-0.3 6.41,-0.46 9.67,-0.46 z m 2.25,81.75 c 2.75,0 5.37,-0.06 7.88,-0.19 2.5,-0.12 4.5,-0.31 6,-0.56 v -21.19 c -1.13,-0.25 -2.81,-0.5 -5.06,-0.75 -2.25,-0.25 -4.31,-0.38 -6.19,-0.38 -2.63,0 -5.09,0.16 -7.41,0.47 -2.31,0.31 -4.34,0.91 -6.09,1.78 -1.75,0.88 -3.13,2.06 -4.13,3.56 -1,1.5 -1.5,3.38 -1.5,5.63 0,4.38 1.47,7.41 4.41,9.09 2.93,1.7 6.96,2.54 12.09,2.54 z"
   id="path165" />
	</g>
	<g
   id="g179">
		<path
   class="st3"
   d="m 1026.16,503.71 c 8.25,0 15.12,0.94 20.63,2.81 5.5,1.88 9.91,4.56 13.22,8.06 3.31,3.5 5.65,7.75 7.03,12.75 1.37,5 2.06,10.56 2.06,16.69 v 58.13 c -4,0.88 -9.56,1.91 -16.69,3.09 -7.13,1.19 -15.75,1.78 -25.88,1.78 -6.38,0 -12.16,-0.56 -17.34,-1.69 -5.19,-1.13 -9.66,-2.97 -13.41,-5.53 -3.75,-2.56 -6.63,-5.91 -8.63,-10.03 -2,-4.13 -3,-9.19 -3,-15.19 0,-5.75 1.15,-10.62 3.47,-14.63 2.31,-4 5.41,-7.19 9.28,-9.56 3.87,-2.37 8.31,-4.09 13.31,-5.16 5,-1.06 10.19,-1.59 15.56,-1.59 3.62,0 6.84,0.16 9.66,0.47 2.81,0.31 5.09,0.72 6.84,1.22 v -2.63 c 0,-4.75 -1.44,-8.56 -4.31,-11.44 -2.88,-2.87 -7.88,-4.31 -15,-4.31 -4.75,0 -9.44,0.35 -14.06,1.03 -4.63,0.69 -8.63,1.66 -12,2.91 l -3.56,-22.5 c 1.62,-0.5 3.66,-1.03 6.09,-1.59 2.43,-0.56 5.09,-1.06 7.97,-1.5 2.87,-0.44 5.91,-0.81 9.09,-1.13 3.2,-0.3 6.42,-0.46 9.67,-0.46 z m 2.25,81.75 c 2.75,0 5.37,-0.06 7.88,-0.19 2.5,-0.12 4.5,-0.31 6,-0.56 v -21.19 c -1.13,-0.25 -2.81,-0.5 -5.06,-0.75 -2.25,-0.25 -4.31,-0.38 -6.19,-0.38 -2.63,0 -5.09,0.16 -7.41,0.47 -2.31,0.31 -4.34,0.91 -6.09,1.78 -1.75,0.88 -3.13,2.06 -4.13,3.56 -1,1.5 -1.5,3.38 -1.5,5.63 0,4.38 1.47,7.41 4.41,9.09 2.93,1.7 6.96,2.54 12.09,2.54 z"
   id="path169" />
		<path
   class="st3"
   d="m 1133.78,606.84 c -8.13,-0.13 -14.72,-1 -19.78,-2.63 -5.06,-1.63 -9.06,-3.91 -12,-6.84 -2.94,-2.94 -4.94,-6.5 -6,-10.69 -1.06,-4.19 -1.59,-8.91 -1.59,-14.16 V 463.96 l 27.94,-4.5 V 566.9 c 0,2.5 0.19,4.75 0.56,6.75 0.38,2 1.09,3.69 2.16,5.06 1.06,1.38 2.59,2.5 4.59,3.38 2,0.88 4.69,1.44 8.06,1.69 z"
   id="path171" />
		<path
   class="st3"
   d="m 1245.34,555.65 c 0,7.63 -0.94,14.56 -2.81,20.81 -1.88,6.25 -4.63,11.63 -8.25,16.13 -3.63,4.5 -8.13,8 -13.5,10.5 -5.38,2.5 -11.56,3.75 -18.56,3.75 -3.88,0 -7.5,-0.38 -10.88,-1.13 -3.38,-0.75 -6.63,-1.81 -9.75,-3.19 v 37.13 h -27.94 V 509.71 c 2.5,-0.75 5.37,-1.47 8.63,-2.16 3.25,-0.69 6.66,-1.28 10.22,-1.78 3.56,-0.5 7.19,-0.91 10.88,-1.22 3.69,-0.31 7.22,-0.47 10.59,-0.47 8.12,0 15.38,1.22 21.75,3.66 6.37,2.44 11.75,5.88 16.12,10.31 4.37,4.44 7.72,9.84 10.03,16.22 2.32,6.38 3.47,13.5 3.47,21.38 z m -28.5,0.75 c 0,-8.63 -1.94,-15.53 -5.81,-20.72 -3.88,-5.19 -9.63,-7.78 -17.25,-7.78 -2.5,0 -4.81,0.09 -6.94,0.28 -2.13,0.19 -3.88,0.41 -5.25,0.66 v 50.44 c 1.75,1.13 4.03,2.06 6.84,2.81 2.81,0.75 5.65,1.13 8.53,1.13 13.26,-0.01 19.88,-8.94 19.88,-26.82 z"
   id="path173" />
		<path
   class="st3"
   d="m 1266.9,604.96 v -141 l 27.94,-4.5 v 47.25 c 1.88,-0.62 4.28,-1.22 7.22,-1.78 2.94,-0.56 5.78,-0.84 8.53,-0.84 8,0 14.65,1.1 19.97,3.28 5.31,2.19 9.56,5.28 12.75,9.28 3.19,4 5.44,8.75 6.75,14.25 1.31,5.5 1.97,11.63 1.97,18.38 v 55.69 h -27.94 v -52.31 c 0,-9 -1.16,-15.38 -3.47,-19.13 -2.31,-3.75 -6.59,-5.63 -12.84,-5.63 -2.5,0 -4.85,0.22 -7.03,0.66 -2.19,0.44 -4.16,0.91 -5.91,1.41 v 75 h -27.94 z"
   id="path175" />
		<path
   class="st3"
   d="m 1412.78,503.71 c 8.25,0 15.12,0.94 20.63,2.81 5.5,1.88 9.91,4.56 13.22,8.06 3.31,3.5 5.65,7.75 7.03,12.75 1.37,5 2.06,10.56 2.06,16.69 v 58.13 c -4,0.88 -9.56,1.91 -16.69,3.09 -7.13,1.19 -15.75,1.78 -25.88,1.78 -6.38,0 -12.16,-0.56 -17.34,-1.69 -5.19,-1.13 -9.66,-2.97 -13.41,-5.53 -3.75,-2.56 -6.63,-5.91 -8.63,-10.03 -2,-4.13 -3,-9.19 -3,-15.19 0,-5.75 1.15,-10.62 3.47,-14.63 2.31,-4 5.41,-7.19 9.28,-9.56 3.87,-2.37 8.31,-4.09 13.31,-5.16 5,-1.06 10.19,-1.59 15.56,-1.59 3.62,0 6.84,0.16 9.66,0.47 2.81,0.31 5.09,0.72 6.84,1.22 v -2.63 c 0,-4.75 -1.44,-8.56 -4.31,-11.44 -2.88,-2.87 -7.88,-4.31 -15,-4.31 -4.75,0 -9.44,0.35 -14.06,1.03 -4.63,0.69 -8.63,1.66 -12,2.91 l -3.56,-22.5 c 1.62,-0.5 3.66,-1.03 6.09,-1.59 2.43,-0.56 5.09,-1.06 7.97,-1.5 2.87,-0.44 5.91,-0.81 9.09,-1.13 3.2,-0.3 6.41,-0.46 9.67,-0.46 z m 2.25,81.75 c 2.75,0 5.37,-0.06 7.88,-0.19 2.5,-0.12 4.5,-0.31 6,-0.56 v -21.19 c -1.13,-0.25 -2.81,-0.5 -5.06,-0.75 -2.25,-0.25 -4.31,-0.38 -6.19,-0.38 -2.63,0 -5.09,0.16 -7.41,0.47 -2.31,0.31 -4.34,0.91 -6.09,1.78 -1.75,0.88 -3.13,2.06 -4.13,3.56 -1,1.5 -1.5,3.38 -1.5,5.63 0,4.38 1.47,7.41 4.41,9.09 2.93,1.7 6.96,2.54 12.09,2.54 z"
   id="path177" />
	</g>
</g><path
     class="st3"
     d="m 1245.34,555.65 c 0,7.63 -0.94,14.56 -2.81,20.81 -1.88,6.25 -4.63,11.63 -8.25,16.13 -3.63,4.5 -8.13,8 -13.5,10.5 -5.38,2.5 -11.56,3.75 -18.56,3.75 -3.88,0 -7.5,-0.38 -10.88,-1.13 -3.38,-0.75 -6.63,-1.81 -9.75,-3.19 v 58.41 h -27.94 V 509.71 c 2.5,-0.75 5.37,-1.47 8.63,-2.16 3.25,-0.69 6.66,-1.28 10.22,-1.78 3.56,-0.5 7.19,-0.91 10.88,-1.22 3.69,-0.31 7.22,-0.47 10.59,-0.47 8.12,0 15.38,1.22 21.75,3.66 6.37,2.44 11.75,5.88 16.12,10.31 4.37,4.44 7.72,9.84 10.03,16.22 2.31,6.38 3.47,13.5 3.47,21.38 z m -28.5,0.75 c 0,-8.63 -1.94,-15.53 -5.81,-20.72 -3.88,-5.19 -9.63,-7.78 -17.25,-7.78 -2.5,0 -4.81,0.09 -6.94,0.28 -2.13,0.19 -3.88,0.41 -5.25,0.66 v 50.44 c 1.75,1.13 4.03,2.06 6.84,2.81 2.81,0.75 5.65,1.13 8.53,1.13 13.26,-0.01 19.88,-8.94 19.88,-26.82 z"
     id="path183" /><path
     class="st3"
     d="m 575.22,605.79 43.53,-81.93 c 31.2,-52.61 78.51,-65.69 126.64,-64.3 -14.07,8.55 -37.97,24.96 -61.96,75.92 -27.43,55.8 -58.86,73.92 -108.21,70.31 z"
     id="path185" /><path
     class="st2"
     d="M 926.58,526.27 C 900.24,479.25 863.77,461.96 822.24,459.48 l -5.63,-0.23 c -0.68,-0.03 -1.37,-0.03 -2.05,0 l -3.99,0.18 c -41.5,2.49 -77.96,19.78 -104.29,66.78 L 666.3,606.2 c 47.64,2.3 88.73,-13.9 116.49,-67.81 l 33.63,-67.26 33.66,67.31 c 27.76,53.91 68.86,70.11 116.49,67.81 z"
     id="path187" /></g>
</svg>
