<?xml version="1.0" encoding="UTF-8" standalone="no"?>
<svg
   xmlns:dc="http://purl.org/dc/elements/1.1/"
   xmlns:cc="http://creativecommons.org/ns#"
   xmlns:rdf="http://www.w3.org/1999/02/22-rdf-syntax-ns#"
   xmlns:svg="http://www.w3.org/2000/svg"
   xmlns="http://www.w3.org/2000/svg"
   version="1.1"
   id="Layer_1"
   x="0px"
   y="0px"
   viewBox="0 0 622.27002 234.10321"
   xml:space="preserve"
   width="622.27002"
   height="234.10323"><metadata
   id="metadata717"><rdf:RDF><cc:Work
       rdf:about=""><dc:format>image/svg+xml</dc:format><dc:type
         rdf:resource="http://purl.org/dc/dcmitype/StillImage" /><dc:title></dc:title></cc:Work></rdf:RDF></metadata><defs
   id="defs715" />
<style
   type="text/css"
   id="style704">
	.st0{fill:#2B2B2B;}
	.st1{fill:#FFFFFF;}
	.st2{fill:#F2F200;}
	.st3{fill:#2CC66A;}
</style>
<g
   id="g710"
   transform="translate(-688.87,-456.86115)">
	<path
   class="st3"
   d="M 688.87,689.89 758.09,559.62 C 807.7,475.97 882.92,455.17 959.44,457.38 937.07,470.97 899.06,497.07 860.91,578.1 817.32,666.82 767.33,695.63 688.87,689.89 Z"
   id="path706" />
	<path
   class="st2"
   d="m 1247.55,563.45 c -41.88,-74.77 -99.88,-102.25 -165.9,-106.19 l -8.95,-0.37 c -1.09,-0.04 -2.18,-0.04 -3.26,0.01 l -6.34,0.29 c -65.99,3.95 -123.96,31.45 -165.82,106.19 L 833.7,690.55 c 75.74,3.66 141.08,-22.1 185.22,-107.82 l 53.48,-106.95 53.51,107.03 c 44.14,85.71 109.48,111.48 185.23,107.82 z"
   id="path708" />
</g>
</svg>
